<svg version="1.1" id="Layer_1" xmlns="http://www.w3.org/2000/svg" xmlns:xlink="http://www.w3.org/1999/xlink" x="0px" y="0px"
	 width="100%" viewBox="0 0 360 432" enable-background="new 0 0 360 432" xml:space="preserve">
<path fill="#000000" opacity="1.000000" stroke="none" id="path1"
	d="
M188.000000,433.000000 
	C125.352951,433.000000 63.205906,433.000000 1.029430,433.000000 
	C1.029430,289.065063 1.029430,145.130142 1.029430,1.097601 
	C120.896996,1.097601 240.794098,1.097601 360.845581,1.097601 
	C360.845581,144.999863 360.845581,288.999908 360.845581,433.000000 
	C303.463531,433.000000 245.981766,433.000000 188.000000,433.000000 
M93.000000,161.000000 
	C93.000000,161.000000 92.997398,160.997604 92.999718,161.935211 
	C92.999840,174.263596 93.243584,186.597855 92.946701,198.919083 
	C92.414551,221.004379 96.471169,242.784073 94.534821,265.155426 
	C91.498543,300.234741 91.700096,335.595032 90.562805,370.837372 
	C90.320778,378.337280 92.494621,381.902405 99.678024,384.574188 
	C104.490898,386.364288 109.513863,388.121307 114.570412,388.633453 
	C137.905838,390.996948 161.252716,393.905914 184.660385,394.695435 
	C204.404831,395.361359 224.285385,393.599609 243.679474,389.100128 
	C253.541656,386.812073 263.271240,383.885468 272.944977,380.875427 
	C279.455811,378.849518 282.580841,374.134430 282.001251,367.136658 
	C281.109253,356.366058 280.892181,345.502716 279.339111,334.831512 
	C276.263153,313.696564 273.980286,292.560181 274.999695,271.169647 
	C275.332397,264.189178 275.906586,257.209778 275.944580,250.227570 
	C276.066956,227.736969 276.059387,205.244980 275.948242,182.754272 
	C275.916168,176.272461 275.304810,169.795349 275.077911,163.311920 
	C274.961700,159.991226 276.278748,158.314148 280.000275,159.246628 
	C282.059326,159.762558 284.343719,160.050613 286.417053,159.731110 
	C301.981934,157.332611 316.798126,152.408783 331.141205,145.999771 
	C334.454071,144.519455 335.343262,142.130875 333.882507,138.666000 
	C324.664307,116.800903 318.338745,94.042229 312.776123,71.019516 
	C310.743652,62.607384 306.520935,54.675602 299.231476,50.009037 
	C289.040344,43.484837 278.100800,38.052948 267.195007,32.741924 
	C254.634827,26.625212 241.730545,21.218428 229.048996,15.345098 
	C226.010010,13.937619 223.260956,11.904087 220.170975,10.032763 
	C221.039841,14.380533 222.897934,18.319120 222.319763,21.859901 
	C220.962204,30.174044 216.172897,36.915997 208.239029,40.064056 
	C192.117493,46.460880 175.711182,46.902809 159.652908,39.669930 
	C150.190598,35.407974 145.579025,27.812849 146.150665,17.277624 
	C146.217331,16.048750 146.045090,14.806912 145.985504,13.609020 
	C145.195786,13.609020 144.832306,13.509780 144.556122,13.623168 
	C124.391533,21.901543 104.196693,30.108034 84.092003,38.529716 
	C74.650932,42.484501 65.431099,46.915268 61.155891,57.280228 
	C59.634293,60.969250 57.796326,64.566803 56.672325,68.374260 
	C50.834801,88.148346 45.257538,107.999336 39.403442,127.768410 
	C38.134357,132.054062 36.105602,136.115219 34.418877,140.276581 
	C33.185268,143.320053 33.993416,145.373856 37.178741,146.548080 
	C47.948875,150.518265 58.577053,154.917191 69.487061,158.449326 
	C77.029030,160.891052 84.850296,163.105469 93.000000,161.000000 
z"/>
<path fill="#0A0A0A" opacity="1.000000" stroke="none" id="path2"
	d="
M93.002632,161.002838 
	C84.850296,163.105469 77.029030,160.891052 69.487061,158.449326 
	C58.577053,154.917191 47.948875,150.518265 37.178741,146.548080 
	C33.993416,145.373856 33.185268,143.320053 34.418877,140.276581 
	C36.105602,136.115219 38.134357,132.054062 39.403442,127.768410 
	C45.257538,107.999336 50.834801,88.148346 56.672325,68.374260 
	C57.796326,64.566803 59.634293,60.969250 61.155891,57.280228 
	C65.431099,46.915268 74.650932,42.484501 84.092003,38.529716 
	C104.196693,30.108034 124.391533,21.901543 144.556122,13.623168 
	C144.832306,13.509780 145.195786,13.609020 145.985504,13.609020 
	C146.045090,14.806912 146.217331,16.048750 146.150665,17.277624 
	C145.579025,27.812849 150.190598,35.407974 159.652908,39.669930 
	C175.711182,46.902809 192.117493,46.460880 208.239029,40.064056 
	C216.172897,36.915997 220.962204,30.174044 222.319763,21.859901 
	C222.897934,18.319120 221.039841,14.380533 220.170975,10.032763 
	C223.260956,11.904087 226.010010,13.937619 229.048996,15.345098 
	C241.730545,21.218428 254.634827,26.625212 267.195007,32.741924 
	C278.100800,38.052948 289.040344,43.484837 299.231476,50.009037 
	C306.520935,54.675602 310.743652,62.607384 312.776123,71.019516 
	C318.338745,94.042229 324.664307,116.800903 333.882507,138.666000 
	C335.343262,142.130875 334.454071,144.519455 331.141205,145.999771 
	C316.798126,152.408783 301.981934,157.332611 286.417053,159.731110 
	C284.343719,160.050613 282.059326,159.762558 280.000275,159.246628 
	C276.278748,158.314148 274.961700,159.991226 275.077911,163.311920 
	C275.304810,169.795349 275.916168,176.272461 275.948242,182.754272 
	C276.059387,205.244980 276.066956,227.736969 275.944580,250.227570 
	C275.906586,257.209778 275.332397,264.189178 274.999695,271.169647 
	C273.980286,292.560181 276.263153,313.696564 279.339111,334.831512 
	C280.892181,345.502716 281.109253,356.366058 282.001251,367.136658 
	C282.580841,374.134430 279.455811,378.849518 272.944977,380.875427 
	C263.271240,383.885468 253.541656,386.812073 243.679474,389.100128 
	C224.285385,393.599609 204.404831,395.361359 184.660385,394.695435 
	C161.252716,393.905914 137.905838,390.996948 114.570412,388.633453 
	C109.513863,388.121307 104.490898,386.364288 99.678024,384.574188 
	C92.494621,381.902405 90.320778,378.337280 90.562805,370.837372 
	C91.700096,335.595032 91.498543,300.234741 94.534821,265.155426 
	C96.471169,242.784073 92.414551,221.004379 92.946701,198.919083 
	C93.243584,186.597855 92.999840,174.263596 93.015877,161.455902 
	C93.032036,160.976608 93.002632,161.002838 93.002632,161.002838 
z"/>
<path fill="#000000" opacity="1.000000" stroke="none" id="path3"
	d="
M93.001312,161.001419 
	C93.002632,161.002838 93.032036,160.976608 93.014717,160.987106 
	C92.997398,160.997604 93.000000,161.000000 93.001312,161.001419 
z"/>
</svg>
